<svg id="fragment" xmlns="http://www.w3.org/2000/svg" fill="none" viewBox="0 0 318 309"><path fill="#121212" d="M210.521 152.042c-17.437 0-30.374-3.886-38.811-11.556-8.488-7.721-12.681-18.766-12.681-33.237v-14.93c0-14.42 4.244-25.516 12.681-33.237 8.437-7.722 21.374-11.557 38.811-11.557 17.436 0 30.373 3.835 38.81 11.557 8.437 7.72 12.681 18.766 12.681 33.236v14.931c0 14.42-4.244 25.516-12.681 33.237-8.488 7.721-21.425 11.556-38.81 11.556Z"/><path fill="#121212" d="M161.275 0c49.293 0 87.695 16.158 115.307 48.525C304.194 80.893 318 132.385 318 203.052v19.43H80.638v24.647c0 25.53 5.346 46.097 16.066 61.733h-79.08a228.557 228.557 0 0 1-5.3-14.742C4.09 268.758 0 238.385 0 203.052s3.733-65.809 11.198-91.427c7.466-25.618 18.306-46.635 32.47-63.1 14.164-16.413 31.09-28.634 50.775-36.56C114.08 4.039 136.373 0 161.275 0Zm131.008 308.862H246.95c6.646-7.501 12.668-16.129 18.075-25.888l27.258 25.888ZM161.275 61.258c-25.873 0-45.815 7.824-59.723 23.521-13.96 15.698-20.914 39.169-20.914 70.565v15.698h156.008v-15.698c0-62.69-25.157-94.034-75.371-94.034v-.052Z"/></svg>